<?xml version="1.0" encoding="UTF-8" standalone="no"?>
<svg
   xmlns:svg="http://www.w3.org/2000/svg"
   xmlns="http://www.w3.org/2000/svg"
   width="800.0"
   height="600.0"

>
    <g transform="scale(1.554441543259827, -1.554441543259827)   translate(230.0811514773727,-156.99880217561522)" stroke-width="0.6433178554292206"  fill="none">
       <!-- hidden lines -->
       <g  stroke="rgb(160,160,160)" fill="none" stroke-dasharray="0.6433178554292206,0.6433178554292206" >
			<path d="M-94.81057189696645,-144.11633860809488 L94.81057189696647,-130.6230570063762 " />
			<path d="M-94.81057189696645,-144.11633860809488 L-94.92642881587123,-144.12352906326493 L-95.04225010692866,-144.128609655181 L-95.15800015324746,-144.13157882148016 L-95.2736433598453,-144.13243564909652 L-95.38914416459474,-144.1311798745419 L-95.50446704915917,-144.12781188398705 L-95.61957654991531,-144.1223327131426 L-95.73443726885874,-144.11474404694093 L-95.84901388448945,-144.10504821901765 L-95.9632711626737,-144.09324821099423 L-96.07717396747914,-144.0793476515611 L-96.19068727197957,-144.0633508153616 L-96.30377616902638,-144.04526262167755 L-96.41640588198298,-144.02508863291658 L-96.52854177541923,-144.00283505290142 L-96.64014936576233,-143.9785087249623 L-96.75119433190109,-143.95211712983237 L-96.86164252574027,-143.92366838334746 L-96.97145998270155,-143.89317123395003 L-97.08061293216828,-143.86063505999914 L-97.18906780787043,-143.8260698668864 L-97.29679125820681,-143.78948628395904 L-97.4037501565011,-143.75089556125135 L-97.50991161118897,-143.71030956602505 L-97.61524297593267,-143.66774077911995 L-97.71971185966035,-143.6232022911158 L-97.82328613652678,-143.57670779830693 L-97.92593395579259,-143.52827159849014 L-98.02762375161886,-143.47790858656816 L-98.12832425277418,-143.42563424996914 L-98.22800449225095,-143.3714646638839 L-98.32663381678829,-143.31541648632273 " />
			<path d="M94.81057189696645,-130.62305700637623 L94.97271600228433,-130.60945473192214 L95.13476243805611,-130.59173217922594 L95.29661359356821,-130.56990002369074 L95.45817197573655,-130.54397141619063 L95.61934026783275,-130.51396197514927 L95.78002138810416,-130.47988977713177 L95.94011854825214,-130.44177534595622 L96.09953531173387,-130.39964164033074 L96.25817565185199,-130.35351404002415 L96.41594400959755,-130.30342033057804 L96.5727453512112,-130.24939068656982 L96.7284852254279,-130.19145765343677 L96.88306982037096,-130.1296561278718 L97.03640602006064,-130.06402333680302 L97.18840146050387,-129.99459881496958 L97.33896458533079,-129.92142438110744 L97.48800470094494,-129.84454411275948 L97.63543203115363,-129.76400431972453 L97.7811577712458,-129.67985351616238 L97.92509414148468,-129.5921423913705 L98.06715443998294,-129.5009237792507 L98.20725309492876,-129.4062526264841 L98.34530571613102,-129.30818595943308 L98.48122914585282,-129.20678284979093 L98.6149415089026,-129.10210437899923 L98.74636226195271,-128.9942136014546 L98.87541224205562,-128.88317550652707 L99.00201371432883,-128.76905697941314 L99.12609041877934,-128.6519267608463 L99.24756761623996,-128.53185540569046 L99.36637213338925,-128.40891524044025 L99.48243240682845,-128.28318031965412 L99.59567852618864,-128.15472638134685 L99.70604227624203,-128.0236308013677 L99.81345717799238,-127.88997254679201 L99.91785852871938,-127.75383212835457 L100.01918344095314,-127.61529155195285 L100.11737088035535,-127.47443426924967 L100.21236170248395,-127.33134512740514 L100.30409868841964,-127.18611031796789 L100.39252657923237,-127.03881732495641 L100.4775921092672,-126.88955487216208 L100.5592440382297,-126.73841286970516 L100.637433182051,-126.58548235987637 L100.71211244251454,-126.43085546229639 L100.78323683562625,-126.27462531842647 L100.85076351871125,-126.11688603546344 L100.91465181622061,-125.9577326296531 L100.97486324423286,-125.79726096905598 L101.03136153363522,-125.63556771580001 L101.08411265197077,-125.47275026785486 L101.13308482393829,-125.30890670036301 L101.17824855053259,-125.14413570656305 L101.21957662681355,-124.97853653834042 L101.25704415829337,-124.81220894644193 L101.29062857593209,-124.64525312038954 L101.32030964973232,-124.47776962812999 L101.34606950092507,-124.3098593554564 L101.36789261273918,-124.14162344523847 L101.38576583974815,-123.97316323649775 L101.3996784157883,-123.80458020336486 L101.40962196044407,-123.63597589395525 L101.41559048409599,-123.46745186920037 L101.41758039152857,-123.29910964167127 " />
			<path d="M101.41758039152857,-123.29910964167124 L101.41758039152857,137.73268961284762 " />
			<path d="M101.41758039152857,137.73268961284765 L101.41429213352332,137.94866412982498 L101.4044306325897,138.16395568967988 L101.3880057047161,138.37834999446014 L101.36503369902651,138.59163363932774 L101.33553748150688,138.80359432497858 L101.29954641224458,139.01402106896217 L101.25709631620389,139.22270441569023 L101.20822944756631,139.42943664492572 L101.15299444767147,139.63401197854424 L101.09144629660021,139.8362267853627 L101.02364625844825,140.03587978383047 L100.94966182034489,140.2327722423821 L100.86956662527727,140.42670817725173 L100.78344039878732,140.61749454755227 L100.69136886961414,140.80494144742545 L100.5934436843609,140.9888622950712 L100.48976231627125,141.16907401846825 L100.38042796820586,141.34539723760145 L100.26554946991592,141.5176564430137 L100.14524116971563,141.68568017050558 L100.01962282066165,141.84930117180807 L99.88881946135265,142.00835658105902 L99.75296129146788,142.16268807691736 L99.61218354216834,142.31214204015365 L99.46662634148973,142.45656970656051 L99.31643457486113,142.59582731503016 L99.16175774088825,142.72977625065198 L99.0027498025448,142.8582831826878 L98.83956903392003,142.98122019728726 L98.6723778626752,143.09846492481128 L98.50134270836544,143.209900661637 L98.32663381678833,143.3154164863227 " />
			<path d="M-89.39282493142552,96.34010991548328 L-71.4595161604712,97.61622913117593 " />
			<path d="M-71.45951616047118,97.61622913117594 L-71.32057735714704,97.6296540570975 L-71.18197326956971,97.65012295554119 L-71.04403780712646,97.67758651513785 L-70.907103268428,97.71197857376686 L-70.77149954077214,97.7532162779466 L-70.63755330541628,97.8012002824357 L-70.50558725057367,97.85581498956446 L-70.37591929402932,97.9169288277197 L-70.24886181724811,97.98439456831238 L-70.12472091282051,98.05804968046411 L-70.00379564705877,98.1377167225583 L-69.88637733951988,98.2232037697125 L-69.77274886119136,98.31430487614236 L-69.66318395303017,98.41080057130299 L-69.55794656649682,98.5124583886127 L-69.45729022767318,98.61903342548543 L-69.36145742649593,98.73026893332246 L-69.27067903257708,98.84589693604237 L-69.1851737390188,98.96563887565875 L-69.10514753556266,99.08920628335095 L-69.03079321234229,99.21630147441059 L-68.96228989543495,99.34661826539016 L-68.89980261533127,99.47984271172584 L-68.84348190936225,99.6156538640573 L-68.7934634590417,99.7537245414229 L-68.74986776319754,99.89372211946733 L-68.71279984767958,100.03530933176272 L-68.68234901234305,100.1781450823131 L-68.65858861591748,100.32188526728444 L-68.64157589927903,100.46618360398101 L-68.6313518475522,100.61069246507064 L-68.62794109137313,100.7550637160495 " />
			<path d="M-68.62794109137313,100.7550637160495 L-68.62794109137313,122.29557228168872 " />
			<path d="M-68.62794109137313,122.2955722816887 L-68.62935034480395,122.38813278896471 L-68.63357670234694,122.48040060033108 L-68.6406159571499,122.57228387380835 L-68.65046110244545,122.66369115018017 L-68.66310233852528,122.75453144403053 L-68.67852708249484,122.84471433430922 L-68.696719980798,122.93415005433553 L-68.71766292449982,123.02274958115072 L-68.74133506731188,123.1104247241301 L-68.76771284634243,123.19708821276659 L-68.79677000555041,123.28265378353848 L-68.82847762188042,123.3670362657749 L-68.86280413405225,123.45015166643331 L-68.89971537397652,123.53191725370498 L-68.93917460076503,123.61225163936491 L-68.98114253730213,123.69107485978451 L-69.02557740934056,123.7683084555261 L-69.07243498708286,123.84387554944033 L-69.12166862920712,123.91770092318843 L-69.17322932929297,123.98971109211352 L-69.22706576460182,124.05983437838603 L-69.28312434716281,124.12800098235073 L-69.34134927711342,124.19414305200429 L-69.4016825982418,124.25819475053413 L-69.4640642556755,124.32009232185136 L-69.52843215565917,124.37977415405264 L-69.59472222736184,124.4371808407477 L-69.66286848665189,124.49225524019162 L-69.7328031017768,124.54494253216282 L-69.80445646088172,124.59519027253026 L-69.87775724130019,124.64294844545557 L-69.95263248054752,124.68816951317801 " />
			<path d="M-89.39282493142552,96.34010991548328 L-89.49211559283789,96.33485089530352 L-89.59128412980218,96.33321118362544 L-89.69020856807956,96.33519279724379 L-89.78876723366507,96.34079329883498 L-89.88683890244292,96.35000579995499 L-89.98430294928829,96.36281896951184 L-90.08103949643261,96.37921704770257 L-90.17692956090947,96.39917986539726 L-90.27185520090002,96.42268286894647 L-90.36569966079773,96.44969715038145 L-90.45834751481425,96.48018948297008 L-90.54968480894946,96.51412236208463 L-90.63959920115148,96.55145405133146 L-90.72798009949386,96.59213863388533 L-90.81471879820026,96.63612606896575 L-90.89970861134917,96.68336225338564 " />

       </g>

       <!-- solid lines -->
       <g  stroke="rgb(0,0,0)" fill="none">
			<path d="M-92.69632917870658,-145.34448341718254 L96.92481461522634,-131.85120181546387 " />
			<path d="M-98.32663381678832,-143.31541648632273 L-98.50134270836544,-143.209900661637 L-98.6723778626752,-143.09846492481128 L-98.83956903392003,-142.98122019728729 L-99.00274980254478,-142.8582831826878 L-99.16175774088825,-142.72977625065198 L-99.31643457486112,-142.59582731503016 L-99.46662634148973,-142.45656970656051 L-99.61218354216834,-142.31214204015365 L-99.75296129146788,-142.16268807691736 L-99.88881946135265,-142.00835658105902 L-100.01962282066165,-141.84930117180807 L-100.14524116971563,-141.68568017050558 L-100.26554946991592,-141.5176564430137 L-100.38042796820585,-141.34539723760145 L-100.48976231627125,-141.16907401846825 L-100.5934436843609,-140.9888622950712 L-100.69136886961414,-140.80494144742548 L-100.78344039878732,-140.6174945475523 L-100.86956662527727,-140.42670817725173 L-100.94966182034489,-140.2327722423821 L-101.02364625844825,-140.03587978383047 L-101.09144629660021,-139.8362267853627 L-101.15299444767147,-139.63401197854424 L-101.20822944756631,-139.42943664492572 L-101.25709631620389,-139.22270441569023 L-101.29954641224458,-139.01402106896217 L-101.33553748150688,-138.80359432497858 L-101.36503369902651,-138.59163363932774 L-101.3880057047161,-138.37834999446017 L-101.4044306325897,-138.16395568967988 L-101.41429213352332,-137.948664129825 L-101.41758039152857,-137.7326896128477 " />
			<path d="M-101.41758039152857,123.29910964167124 L-101.41758039152857,-137.73268961284762 " />
			<path d="M-94.81057189696645,130.62305700637623 L-94.97271600228433,130.6094547319221 L-95.13476243805611,130.59173217922594 L-95.29661359356821,130.56990002369074 L-95.45817197573655,130.54397141619063 L-95.61934026783275,130.51396197514927 L-95.78002138810416,130.47988977713177 L-95.94011854825214,130.44177534595622 L-96.09953531173387,130.39964164033074 L-96.25817565185199,130.35351404002415 L-96.41594400959755,130.30342033057804 L-96.5727453512112,130.24939068656982 L-96.7284852254279,130.19145765343677 L-96.88306982037096,130.1296561278718 L-97.03640602006064,130.06402333680302 L-97.18840146050387,129.99459881496958 L-97.33896458533079,129.92142438110744 L-97.48800470094493,129.84454411275948 L-97.63543203115363,129.76400431972453 L-97.7811577712458,129.67985351616238 L-97.92509414148468,129.5921423913705 L-98.06715443998294,129.5009237792507 L-98.20725309492876,129.4062526264841 L-98.34530571613102,129.30818595943308 L-98.48122914585282,129.20678284979093 L-98.6149415089026,129.10210437899923 L-98.74636226195271,128.9942136014546 L-98.87541224205562,128.88317550652707 L-99.00201371432883,128.76905697941314 L-99.12609041877934,128.6519267608463 L-99.24756761623996,128.53185540569046 L-99.36637213338925,128.40891524044025 L-99.48243240682845,128.28318031965412 L-99.59567852618864,128.15472638134685 L-99.70604227624203,128.0236308013677 L-99.81345717799238,127.88997254679201 L-99.91785852871936,127.75383212835459 L-100.01918344095314,127.61529155195285 L-100.11737088035534,127.47443426924967 L-100.21236170248395,127.33134512740514 L-100.30409868841964,127.18611031796789 L-100.39252657923237,127.03881732495641 L-100.47759210926722,126.88955487216207 L-100.5592440382297,126.73841286970514 L-100.637433182051,126.58548235987637 L-100.71211244251454,126.43085546229639 L-100.78323683562625,126.27462531842647 L-100.85076351871125,126.11688603546344 L-100.91465181622061,125.9577326296531 L-100.97486324423286,125.79726096905598 L-101.03136153363522,125.63556771580001 L-101.08411265197076,125.47275026785486 L-101.13308482393829,125.30890670036302 L-101.17824855053259,125.14413570656305 L-101.21957662681355,124.97853653834042 L-101.25704415829337,124.81220894644193 L-101.29062857593209,124.64525312038954 L-101.32030964973232,124.47776962812999 L-101.34606950092507,124.3098593554564 L-101.36789261273918,124.14162344523847 L-101.38576583974815,123.97316323649775 L-101.3996784157883,123.80458020336488 L-101.40962196044407,123.63597589395526 L-101.41559048409599,123.46745186920037 L-101.41758039152857,123.2991096416713 " />
			<path d="M98.32663381678832,143.31541648632273 L98.22800449225095,143.3714646638839 L98.12832425277418,143.42563424996914 L98.02762375161886,143.47790858656816 L97.92593395579259,143.52827159849014 L97.82328613652678,143.57670779830693 L97.71971185966036,143.6232022911158 L97.61524297593269,143.66774077911995 L97.50991161118897,143.71030956602505 L97.4037501565011,143.75089556125135 L97.29679125820681,143.78948628395904 L97.18906780787044,143.8260698668864 L97.08061293216828,143.86063505999914 L96.97145998270155,143.89317123395003 L96.86164252574027,143.92366838334746 L96.75119433190109,143.95211712983237 L96.64014936576233,143.9785087249623 L96.52854177541923,144.00283505290142 L96.41640588198298,144.02508863291658 L96.30377616902638,144.04526262167755 L96.19068727197957,144.0633508153616 L96.07717396747914,144.0793476515611 L95.9632711626737,144.09324821099423 L95.84901388448945,144.10504821901765 L95.73443726885874,144.11474404694093 L95.61957654991531,144.1223327131426 L95.50446704915917,144.12781188398705 L95.38914416459474,144.1311798745419 L95.2736433598453,144.13243564909652 L95.15800015324746,144.13157882148016 L95.04225010692866,144.128609655181 L94.92642881587125,144.12352906326493 L94.81057189696648,144.11633860809488 " />
			<path d="M94.81057189696645,144.11633860809488 L-94.81057189696647,130.6230570063762 " />
			<path d="M-92.69632917870658,-145.34448341718254 L-92.81218609761136,-145.3516738723526 L-92.92800738866879,-145.35675446426868 L-93.04375743498758,-145.35972363056783 L-93.15940064158542,-145.3605804581842 L-93.27490144633487,-145.35932468362958 L-93.3902243308993,-145.35595669307472 L-93.50533383165543,-145.35047752223028 L-93.62019455059887,-145.3428888560286 L-93.73477116622958,-145.3331930281053 L-93.84902844441383,-145.3213930200819 L-93.96293124921927,-145.30749246064877 L-94.0764445537197,-145.29149562444925 L-94.1895334507665,-145.27340743076522 L-94.30216316372311,-145.25323344200424 L-94.41429905715935,-145.23097986198908 L-94.52590664750245,-145.20665353404996 L-94.63695161364122,-145.18026193892004 L-94.74739980748039,-145.15181319243513 L-94.85721726444167,-145.1213160430377 L-94.9663702139084,-145.0887798690868 L-95.07482508961056,-145.05421467597407 L-95.18254853994694,-145.0176310930467 L-95.28950743824123,-144.97904037033902 L-95.3956688929291,-144.9384543751127 L-95.5010002576728,-144.89588558820762 L-95.60546914140048,-144.85134710020347 L-95.7090434182669,-144.8048526073946 L-95.81169123753271,-144.7564164075778 L-95.91338103335899,-144.70605339565583 L-96.0140815345143,-144.6537790590568 L-96.11376177399107,-144.59960947297157 L-96.21239109852841,-144.5435612954104 " />
			<path d="M-96.21239109852844,-144.5435612954104 L-96.38709999010557,-144.43804547072466 L-96.55813514441533,-144.32660973389895 L-96.72532631566015,-144.20936500637495 L-96.88850708428491,-144.08642799177548 L-97.04751502262837,-143.95792105973965 L-97.20219185660125,-143.82397212411783 L-97.35238362322985,-143.68471451564818 L-97.49794082390846,-143.5402868492413 L-97.63871857320801,-143.39083288600503 L-97.77457674309278,-143.23650139014669 L-97.90538010240178,-143.07744598089573 L-98.03099845145576,-142.91382497959324 L-98.15130675165605,-142.74580125210136 L-98.26618524994598,-142.5735420466891 L-98.37551959801138,-142.39721882755592 L-98.47920096610103,-142.21700710415885 L-98.57712615135426,-142.03308625651314 L-98.66919768052745,-141.84563935663996 L-98.7553239070174,-141.6548529863394 L-98.83541910208501,-141.46091705146978 L-98.90940354018838,-141.26402459291813 L-98.97720357834034,-141.06437159445036 L-99.0387517294116,-140.8621567876319 L-99.09398672930644,-140.65758145401338 L-99.14285359794401,-140.4508492247779 L-99.18530369398471,-140.24216587804983 L-99.221294763247,-140.03173913406624 L-99.25079098076664,-139.8197784484154 L-99.27376298645622,-139.60649480354783 L-99.29018791432982,-139.39210049876755 L-99.30004941526344,-139.17680893891267 L-99.3033376732687,-138.96083442193537 " />
			<path d="M96.92481461522632,-131.8512018154639 L97.0869587205442,-131.8375995410098 L97.24900515631599,-131.8198769883136 L97.41085631182808,-131.7980448327784 L97.57241469399642,-131.7721162252783 L97.73358298609263,-131.74210678423694 L97.89426410636403,-131.70803458621944 L98.05436126651202,-131.66992015504388 L98.21377802999375,-131.6277864494184 L98.37241837011186,-131.58165884911182 L98.53018672785743,-131.5315651396657 L98.68698806947107,-131.4775354956575 L98.84272794368778,-131.41960246252444 L98.99731253863084,-131.35780093695948 L99.15064873832051,-131.29216814589068 L99.30264417876374,-131.22274362405724 L99.45320730359066,-131.1495691901951 L99.60224741920482,-131.07268892184715 L99.7496747494135,-130.9921491288122 L99.89540048950568,-130.90799832525005 L100.03933685974455,-130.82028720045815 L100.18139715824282,-130.72906858833838 L100.32149581318863,-130.63439743557177 L100.4595484343909,-130.53633076852074 L100.5954718641127,-130.4349276588786 L100.72918422716248,-130.3302491880869 L100.86060498021259,-130.22235841054226 L100.98965496031549,-130.11132031561473 L101.1162564325887,-129.9972017885008 L101.24033313703922,-129.88007156993396 L101.36181033449984,-129.76000021477813 L101.48061485164912,-129.63706004952792 L101.59667512508832,-129.5113251287418 L101.70992124444851,-129.3828711904345 L101.8202849945019,-129.25177561045535 L101.92769989625225,-129.11811735587966 L102.03210124697925,-128.98197693744225 L102.13342615921302,-128.84343636104052 L102.23161359861523,-128.70257907833732 L102.32660442074382,-128.5594899364928 L102.41834140667952,-128.41425512705555 L102.50676929749224,-128.26696213404406 L102.59183482752708,-128.11769968124975 L102.67348675648958,-127.96655767879282 L102.75167590031087,-127.81362716896403 L102.82635516077441,-127.65900027138406 L102.89747955388613,-127.50277012751414 L102.96500623697112,-127.3450308445511 L103.02889453448049,-127.18587743874076 L103.08910596249274,-127.02540577814365 L103.1456042518951,-126.86371252488767 L103.19835537023064,-126.70089507694253 L103.24732754219816,-126.53705150945068 L103.29249126879246,-126.37228051565071 L103.33381934507342,-126.20668134742809 L103.37128687655324,-126.0403537555296 L103.40487129419196,-125.8733979294772 L103.4345523679922,-125.70591443721766 L103.46031221918494,-125.53800416454406 L103.48213533099906,-125.36976825432613 L103.50000855800802,-125.20130804558542 L103.51392113404818,-125.03272501245253 L103.52386467870394,-124.86412070304291 L103.52983320235586,-124.69559667828804 L103.53182310978845,-124.52725445075893 " />
			<path d="M-99.3033376732687,122.07096483258357 L-99.3033376732687,-138.9608344219353 " />
			<path d="M103.53182310978845,-124.5272544507589 L103.53182310978845,136.50454480375996 " />
			<path d="M-92.69632917870658,129.39491219728856 L-92.85847328402446,129.38130992283445 L-93.02051971979624,129.36358737013828 L-93.18237087530834,129.34175521460307 L-93.34392925747667,129.31582660710296 L-93.50509754957288,129.2858171660616 L-93.66577866984429,129.2517449680441 L-93.82587582999227,129.21363053686855 L-93.985292593474,129.17149683124308 L-94.14393293359211,129.12536923093649 L-94.30170129133768,129.07527552149037 L-94.45850263295132,129.02124587748216 L-94.61424250716803,128.9633128443491 L-94.76882710211109,128.90151131878415 L-94.92216330180077,128.83587852771535 L-95.074158742244,128.7664540058819 L-95.22472186707091,128.69327957201978 L-95.37376198268505,128.6163993036718 L-95.52118931289375,128.53585951063687 L-95.66691505298593,128.45170870707472 L-95.8108514232248,128.36399758228282 L-95.95291172172307,128.27277897016305 L-96.09301037666889,128.17810781739644 L-96.23106299787115,128.0800411503454 L-96.36698642759295,127.97863804070327 L-96.50069879064273,127.87395956991156 L-96.63211954369284,127.76606879236691 L-96.76116952379574,127.65503069743941 L-96.88777099606895,127.54091217032547 L-97.01184770051947,127.42378195175863 L-97.13332489798009,127.30371059660281 L-97.25212941512937,127.18077043135257 L-97.36818968856858,127.05503551056646 L-97.48143580792876,126.92658157225918 L-97.59179955798216,126.79548599228002 L-97.6992144597325,126.66182773770434 L-97.80361581045949,126.52568731926692 L-97.90494072269327,126.38714674286518 L-98.00312816209546,126.246289460162 L-98.09811898422407,126.10320031831748 L-98.18985597015977,125.95796550888022 L-98.2782838609725,125.81067251586875 L-98.36334939100735,125.6614100630744 L-98.44500131996983,125.51026806061748 L-98.52319046379112,125.3573375507887 L-98.59786972425466,125.20271065320873 L-98.66899411736638,125.0464805093388 L-98.73652080045137,124.88874122637577 L-98.80040909796074,124.72958782056543 L-98.86062052597299,124.56911615996832 L-98.91711881537535,124.40742290671234 L-98.96986993371088,124.2446054587672 L-99.01884210567842,124.08076189127536 L-99.06400583227271,123.91599089747538 L-99.10533390855367,123.75039172925275 L-99.1428014400335,123.58406413735426 L-99.17638585767222,123.41710831130187 L-99.20606693147245,123.24962481904232 L-99.2318267826652,123.08171454636873 L-99.25364989447931,122.9134786361508 L-99.27152312148827,122.74501842741009 L-99.28543569752843,122.57643539427721 L-99.2953792421842,122.4078310848676 L-99.30134776583611,122.23930706011271 L-99.3033376732687,122.07096483258363 " />
			<path d="M103.53182310978845,136.50454480375998 L103.52853485178319,136.7205193207373 L103.51867335084957,136.93581088059221 L103.50224842297597,137.15020518537247 L103.47927641728639,137.36348883024007 L103.44978019976675,137.5754495158909 L103.41378913050445,137.7858762598745 L103.37133903446376,137.99455960660256 L103.32247216582618,138.20129183583805 L103.26723716593135,138.40586716945657 L103.20568901486008,138.60808197627503 L103.13788897670813,138.8077349747428 L103.06390453860476,139.00462743329444 L102.98380934353715,139.19856336816406 L102.8976831170472,139.3893497384646 L102.80561158787401,139.57679663833778 L102.70768640262078,139.76071748598352 L102.60400503453113,139.94092920938058 L102.49467068646574,140.11725242851378 L102.3797921881758,140.28951163392603 L102.2594838879755,140.4575353614179 L102.13386553892153,140.6211563627204 L102.00306217961253,140.78021177197135 L101.86720400972776,140.9345432678297 L101.72642626042821,141.08399723106598 L101.5808690597496,141.22842489747285 L101.43067729312101,141.3676825059425 L101.27600045914812,141.5016314415643 L101.11699252080467,141.63013837360015 L100.9538117521799,141.7530753881996 L100.78662058093508,141.87032011572362 L100.61558542662532,141.98175585254933 L100.4408765350482,142.08727167723504 " />
			<path d="M100.44087653504819,142.08727167723507 L100.34224721051082,142.14331985479623 L100.24256697103405,142.19748944088147 L100.14186646987874,142.2497637774805 L100.04017667405246,142.30012678940247 L99.93752885478665,142.34856298921926 L99.83395457792024,142.39505748202814 L99.72948569419256,142.4395959700323 L99.62415432944884,142.48216475693738 L99.51799287476098,142.5227507521637 L99.41103397646668,142.56134147487137 L99.30331052613032,142.59792505779873 L99.19485565042815,142.63249025091147 L99.08570270096142,142.66502642486236 L98.97588524400014,142.6955235742598 L98.86543705016096,142.7239723207447 L98.7543920840222,142.75036391587463 L98.6427844936791,142.77469024381375 L98.53064860024286,142.7969438238289 L98.41801888728625,142.81711781258988 L98.30492999023944,142.83520600627392 L98.19141668573901,142.85120284247344 L98.07751388093358,142.86510340190657 L97.96325660274933,142.87690340992998 L97.84867998711862,142.88659923785326 L97.73381926817518,142.89418790405495 L97.61870976741905,142.89966707489938 L97.50338688285461,142.90303506545425 L97.38788607810517,142.90429084000885 L97.27224287150733,142.9034340123925 L97.15649282518854,142.90046484609334 L97.04067153413112,142.89538425417726 L96.92481461522635,142.8881937990072 " />
			<path d="M96.92481461522632,142.8881937990072 L-92.69632917870659,129.39491219728853 " />
			<path d="M-69.95263248054752,124.68816951317802 L-70.03762229369644,124.73540569759791 L-70.12436099240284,124.77939313267834 L-70.21274189074522,124.8200777152322 L-70.30265628294724,124.85740940447903 L-70.39399357708245,124.89134228359359 L-70.48664143109897,124.92183461618221 L-70.58048589099668,124.9488488976172 L-70.67541153098723,124.9723519011664 L-70.7713015954641,124.9923147188611 L-70.86803814260841,125.00871279705183 L-70.96550218945379,125.02152596660868 L-71.06357385823163,125.03073846772867 L-71.16213252381715,125.03633896931987 L-71.26105696209453,125.03832058293821 L-71.36022549905881,125.03668087126015 L-71.45951616047117,125.03142185108038 " />
			<path d="M-71.45951616047118,125.03142185108038 L-89.39282493142551,123.75530263538774 " />
			<path d="M-89.39282493142552,123.75530263538774 L-89.53176373474966,123.74187770946618 L-89.670367822327,123.72140881102248 L-89.80830328477025,123.69394525142583 L-89.9452378234687,123.65955319279682 L-90.08084155112456,123.61831548861707 L-90.21478778648043,123.57033148412798 L-90.34675384132304,123.51571677699921 L-90.47642179786737,123.45460293884398 L-90.60347927464859,123.3871371982513 L-90.7276201790762,123.31348208609957 L-90.84854544483794,123.2338150440054 L-90.96596375237682,123.14832799685118 L-91.07959223070534,123.05722689042132 L-91.18915713886653,122.96073119526069 L-91.29439452539988,122.85907337795098 L-91.39505086422352,122.75249834107825 L-91.49088366540077,122.64126283324121 L-91.58166205931963,122.52563483052131 L-91.66716735287791,122.40589289090492 L-91.74719355633404,122.28232548321273 L-91.82154787955442,122.15523029215309 L-91.89005119646176,122.0249135011735 L-91.95253847656544,121.89168905483784 L-92.00885918253445,121.75587790250638 L-92.058877632855,121.61780722514078 L-92.10247332869916,121.47780964709636 L-92.13954124421713,121.33622243480096 L-92.16999207955365,121.19338668425058 L-92.19375247597922,121.04964649927923 L-92.21076519261767,120.90534816258267 L-92.22098924434451,120.76083930149304 L-92.22440000052357,120.61646805051419 " />
			<path d="M-92.22440000052357,120.61646805051416 L-92.22440000052357,99.07595948487494 " />
			<path d="M-90.89970861134918,96.68336225338564 L-90.97458385059652,96.72858332110809 L-91.04788463101498,96.7763414940334 L-91.11953799011991,96.82658923440084 L-91.18947260524482,96.87927652637204 L-91.25761886453486,96.93435092581596 L-91.32390893623753,96.99175761251102 L-91.38827683622121,97.0514394447123 L-91.4506584936549,97.11333701602953 L-91.51099181478328,97.17738871455937 L-91.5692167447339,97.24353078421294 L-91.62527532729489,97.31169738817763 L-91.67911176260374,97.38182067445013 L-91.73067246268958,97.45383084337523 L-91.77990610481385,97.52765621712334 L-91.82676368255615,97.60322331103757 L-91.87119855459457,97.68045690677916 L-91.91316649113168,97.75928012719875 L-91.95262571792018,97.83961451285869 L-91.98953695784445,97.92138010013035 L-92.02386347001628,98.00449550078876 L-92.05557108634629,98.08887798302518 L-92.08462824555427,98.17444355379708 L-92.11100602458482,98.26110704243357 L-92.13467816739688,98.34878218541293 L-92.15562111109871,98.43738171222813 L-92.17381400940187,98.52681743225445 L-92.18923875337143,98.61700032253313 L-92.20187998945126,98.70784061638349 L-92.2117251347468,98.79924789275532 L-92.21876438954976,98.89113116623257 L-92.22299074709275,98.98339897759895 L-92.22440000052357,99.07595948487493 " />
			<path d="M-88.89729929433335,96.05226347585335 L-70.96399052337901,97.328382691546 " />
			<path d="M-70.96399052337901,97.32838269154601 L-70.82505172005487,97.34180761746757 L-70.68644763247754,97.36227651591126 L-70.54851217003429,97.38974007550792 L-70.41157763133583,97.42413213413693 L-70.27597390367997,97.46536983831668 L-70.1420276683241,97.51335384280577 L-70.0100616134815,97.56796854993453 L-69.88039365693714,97.62908238808977 L-69.75333618015594,97.69654812868245 L-69.62919527572834,97.77020324083418 L-69.5082700099666,97.84987028292836 L-69.39085170242771,97.93535733008257 L-69.27722322409919,98.02645843651243 L-69.167658315938,98.12295413167305 L-69.06242092940465,98.22461194898277 L-68.96176459058101,98.3311869858555 L-68.86593178940376,98.44242249369253 L-68.7751533954849,98.55805049641243 L-68.68964810192662,98.67779243602882 L-68.6096218984705,98.80135984372102 L-68.53526757525012,98.92845503478065 L-68.46676425834278,99.05877182576023 L-68.4042769782391,99.1919962720959 L-68.34795627227008,99.32780742442736 L-68.29793782194953,99.46587810179297 L-68.25434212610537,99.6058756798374 L-68.2172742105874,99.74746289213279 L-68.18682337525088,99.89029864268316 L-68.16306297882531,100.03403882765451 L-68.14605026218686,100.17833716435108 L-68.13582621046002,100.32284602544071 L-68.13241545428096,100.46721727641958 " />
			<path d="M-68.13241545428096,100.46721727641958 L-68.13241545428096,122.00772584205879 " />
			<path d="M-68.13241545428096,122.00772584205878 L-68.13382470771178,122.10028634933478 L-68.13805106525477,122.19255416070115 L-68.14509032005773,122.28443743417841 L-68.15493546535328,122.37584471055024 L-68.1675767014331,122.4666850044006 L-68.18300144540267,122.55686789467929 L-68.20119434370582,122.6463036147056 L-68.22213728740763,122.73490314152079 L-68.24580943021971,122.82257828450017 L-68.27218720925026,122.90924177313666 L-68.30124436845824,122.99480734390855 L-68.33295198478825,123.07918982614497 L-68.36727849696008,123.16230522680338 L-68.40418973688435,123.24407081407504 L-68.44364896367286,123.32440519973498 L-68.48561690020996,123.40322842015458 L-68.53005177224838,123.48046201589617 L-68.57690934999069,123.5560291098104 L-68.62614299211495,123.6298544835585 L-68.6777036922008,123.7018646524836 L-68.73154012750965,123.7719879387561 L-68.78759871007064,123.8401545427208 L-68.84582364002125,123.90629661237436 L-68.90615696114963,123.9703483109042 L-68.96853861858332,124.03224588222143 L-69.032906518567,124.09192771442271 L-69.09919659026967,124.14933440111777 L-69.16734284955972,124.2044088005617 L-69.23727746468462,124.25709609253289 L-69.30893082378955,124.30734383290033 L-69.38223160420802,124.35510200582564 L-69.45710684345535,124.40032307354808 " />
			<path d="M-69.45710684345535,124.4003230735481 L-69.54209665660427,124.44755925796798 L-69.62883535531067,124.4915466930484 L-69.71721625365305,124.53223127560227 L-69.80713064585507,124.5695629648491 L-69.89846793999028,124.60349584396366 L-69.9911157940068,124.63398817655228 L-70.08496025390451,124.66100245798727 L-70.17988589389506,124.68450546153647 L-70.27577595837192,124.70446827923116 L-70.37251250551624,124.7208663574219 L-70.46997655236162,124.73367952697875 L-70.56804822113946,124.74289202809874 L-70.66660688672498,124.74849252968994 L-70.76553132500236,124.75047414330828 L-70.86469986196664,124.74883443163021 L-70.963990523379,124.74357541145045 " />
			<path d="M-70.96399052337901,124.74357541145045 L-88.89729929433335,123.4674561957578 " />
			<path d="M-88.89729929433335,123.4674561957578 L-89.03623809765749,123.45403126983625 L-89.17484218523482,123.43356237139255 L-89.31277764767808,123.4060988117959 L-89.44971218637653,123.37170675316689 L-89.58531591403239,123.33046904898714 L-89.71926214938826,123.28248504449805 L-89.85122820423086,123.22787033736928 L-89.9808961607752,123.16675649921405 L-90.10795363755642,123.09929075862136 L-90.23209454198403,123.02563564646964 L-90.35301980774577,122.94596860437547 L-90.47043811528465,122.86048155722125 L-90.58406659361317,122.76938045079139 L-90.69363150177436,122.67288475563076 L-90.79886888830771,122.57122693832105 L-90.89952522713135,122.46465190144832 L-90.9953580283086,122.35341639361128 L-91.08613642222745,122.23778839089138 L-91.17164171578574,122.11804645127499 L-91.25166791924187,121.9944790435828 L-91.32602224246224,121.86738385252316 L-91.39452555936958,121.73706706154357 L-91.45701283947326,121.60384261520791 L-91.51333354544228,121.46803146287645 L-91.56335199576283,121.32996078551085 L-91.60694769160699,121.18996320746643 L-91.64401560712496,121.04837599517103 L-91.67446644246148,120.90554024462065 L-91.69822683888705,120.7618000596493 L-91.7152395555255,120.61750172295274 L-91.72546360725234,120.4729928618631 L-91.7288743634314,120.32862161088426 " />
			<path d="M-91.7288743634314,120.32862161088423 L-91.7288743634314,98.78811304524501 " />
			<path d="M-88.89729929433335,96.05226347585335 L-88.99658995574572,96.04700445567359 L-89.09575849271,96.0453647439955 L-89.19468293098738,96.04734635761386 L-89.2932415965729,96.05294685920505 L-89.39131326535075,96.06215936032505 L-89.48877731219612,96.0749725298819 L-89.58551385934044,96.09137060807264 L-89.6814039238173,96.11133342576733 L-89.77632956380785,96.13483642931654 L-89.87017402370556,96.16185071075152 L-89.96282187772208,96.19234304334014 L-90.0541591718573,96.2262759224547 L-90.14407356405931,96.26360761170153 L-90.23245446240169,96.3042921942554 L-90.31919316110809,96.34827962933582 L-90.404182974257,96.39551581375571 " />
			<path d="M-90.40418297425701,96.39551581375571 L-90.47905821350435,96.44073688147816 L-90.55235899392281,96.48849505440347 L-90.62401235302774,96.53874279477091 L-90.69394696815264,96.59143008674211 L-90.76209322744269,96.64650448618603 L-90.82838329914536,96.70391117288109 L-90.89275119912904,96.76359300508237 L-90.95513285656273,96.8254905763996 L-91.01546617769111,96.88954227492944 L-91.07369110764172,96.955684344583 L-91.12974969020271,97.0238509485477 L-91.18358612551157,97.0939742348202 L-91.23514682559741,97.1659844037453 L-91.28438046772166,97.2398097774934 L-91.33123804546398,97.31537687140764 L-91.3756729175024,97.39261046714923 L-91.4176408540395,97.47143368756882 L-91.45710008082801,97.55176807322876 L-91.49401132075228,97.63353366050042 L-91.52833783292411,97.71664906115883 L-91.56004544925412,97.80103154339525 L-91.5891026084621,97.88659711416715 L-91.61548038749265,97.97326060280363 L-91.63915253030473,98.060935745783 L-91.66009547400654,98.1495352725982 L-91.6782883723097,98.23897099262452 L-91.69371311627926,98.3291538829032 L-91.70635435235909,98.41999417675356 L-91.71619949765463,98.51140145312539 L-91.72323875245759,98.60328472660264 L-91.72746511000058,98.69555253796902 L-91.7288743634314,98.788113045245 " />
			<path d="M-101.41758039152857,-137.73268961284765 L-99.3033376732687,-138.96083442193532 " />
			<path d="M-101.41758039152857,123.29910964167124 L-99.3033376732687,122.07096483258357 " />
			<path d="M-94.81057189696645,130.6230570063762 L-92.69632917870658,129.39491219728853 " />
			<path d="M94.81057189696645,144.1163386080949 L96.92481461522632,142.88819379900724 " />
			<path d="M-71.45951616047118,125.03142185108038 L-70.96399052337902,124.74357541145046 " />
			<path d="M-89.39282493142552,123.75530263538774 L-88.89729929433337,123.46745619575782 " />
			<path d="M-92.22440000052357,120.61646805051416 L-91.72887436343142,120.32862161088424 " />
			<path d="M-92.22440000052357,99.07595948487496 L-91.72887436343142,98.78811304524504 " />
			<path d="M-98.32663381678832,-143.31541648632273 L-96.21239109852844,-144.5435612954104 " />
			<path d="M98.32663381678832,143.31541648632273 L100.44087653504819,142.08727167723507 " />
			<path d="M-69.95263248054754,124.68816951317804 L-69.45710684345538,124.40032307354812 " />
			<path d="M-90.89970861134918,96.68336225338564 L-90.40418297425703,96.39551581375572 " />

       </g>
    </g>
    <g transform="translate(20,570.0)" stroke="rgb(0,0,255)">
        <line x1="30" y1="-30" x2="75" y2="-33" stroke-width="3" stroke="#000000" />
         <text x="80" y="-30" style="stroke:#000000">X </text>

        <line x1="30" y1="-30" x2="30" y2="-75" stroke-width="3" stroke="#000000" />
         <text x="25" y="-85" style="stroke:#000000">Y </text>

        <line x1="30" y1="-30" x2="58" y2="-15" stroke-width="3" stroke="#000000" />
         <text x="65" y="-5" style="stroke:#000000">Z </text>
        <!--
            <line x1="0" y1="0" x2="1.554441543259827" y2="0" stroke-width="3" />
            <text x="0" y="20" style="stroke:#000000">1  mm </text>
        -->
    </g>
</svg>
