<?xml version="1.0" encoding="UTF-8" standalone="no"?>
<svg
   xmlns:svg="http://www.w3.org/2000/svg"
   xmlns="http://www.w3.org/2000/svg"
   width="800.0"
   height="600.0"

>
    <g transform="scale(2.735909632074511, -2.735909632074511)   translate(139.17191464616928,-70.5639266203704)" stroke-width="0.3655091485027403"  fill="none">
       <!-- hidden lines -->
       <g  stroke="rgb(160,160,160)" fill="none" stroke-dasharray="0.3655091485027403,0.3655091485027403" >
			<path d="M-55.54606427214016,-31.07406987237608 L-52.242560024859095,-32.993046136575565 " />
			<path d="M-55.54606427214014,-31.074069872376086 L-52.24256002485909,-30.83899528001165 " />
			<path d="M149.27119905928564,-16.068634974468207 L153.23540415602292,-18.37140649150759 " />
			<path d="M37.329597994276,-24.03430544716027 L149.27119905928566,-16.06863497446821 " />
			<path d="M29.07083737607334,-19.236864786661556 L37.32959799427599,-24.034305447160268 " />
			<path d="M-23.785230580423637,-22.998058264492546 L29.070837376073342,-19.236864786661556 " />
			<path d="M-23.78523058042364,-22.99805826449255 L-15.526469962220986,-27.79549892499126 " />
			<path d="M-58.28325350560158,-30.838035791879545 L-15.526469962220972,-27.79549892499126 " />
			<path d="M-55.54606427214016,-31.07406987237608 L-55.54606427214016,8.090491156058853 " />
			<path d="M149.27119905928564,-16.068634974468207 L149.27119905928564,23.095926053966725 " />
			<path d="M37.32959799427599,-24.03430544716027 L37.422223863158756,-24.02535549654591 L37.514626588210305,-24.011709564250108 L37.60658356317248,-23.993400524519004 L37.697873255638115,-23.970472485432996 L37.78827574074202,-23.942980682646503 L37.877573230979266,-23.910991346320433 L37.96555060087433,-23.87458154156793 L38.051995905237234,-23.83383898279777 L38.136700889758046,-23.788861822402648 L38.219461492709776,-23.739758414301495 L38.30007833655094,-23.68664705290538 L38.37835720824353,-23.629655688135905 L38.45410952712921,-23.56892161718266 L38.52715279923667,-23.504591153742247 L38.59731105692557,-23.436819275535775 L38.664415282807994,-23.36576925095396 L38.72830381692616,-23.29161224572926 L38.7888227462054,-23.214526910582663 L38.84582627524425,-23.1346989508384 L38.89917707754833,-23.052320679043607 L38.948746626361924,-22.96759055167052 L38.99441550430015,-22.880712691017457 L39.03607369103594,-22.791896393460345 L39.07362082834861,-22.70135562523938 L39.106966461895645,-22.609308506995642 L39.136030259125086,-22.51597678829936 L39.16074220280373,-22.42158531343576 L39.18104275969475,-22.326361479735507 L39.19688302397846,-22.23053468975461 L39.20822483507076,-22.134335798623567 L39.21504086955532,-22.03799655789714 L39.21731470700803,-21.94174905724457 " />
			<path d="M39.21731470700803,-21.94174905724456 L39.21731470700803,13.306355868346884 " />
			<path d="M39.21731470700803,13.306355868346882 L39.21355763302549,13.429574747441807 L39.202301366293156,13.551768447341196 L39.183590712926886,13.67245057009389 L39.15750015159024,13.7911407346549 L39.1241335370285,13.90736648906547 L39.08362368666983,14.020665191071014 L39.036131851939096,14.130585849691066 L38.981847076388696,14.236690920410751 L38.92098544320154,14.338558046847966 L38.853789215061475,14.435781741963437 L38.78052586981491,14.527975002121565 L38.70148703576225,14.614770847577171 L38.61698733081733,14.695823783256175 L38.52736311015552,14.770811174015503 L38.432971127335634,14.839434528907926 L38.3341871142251,14.901420689339758 " />
			<path d="M38.334187114225095,14.901420689339762 L38.27752723879249,14.932911478953022 L38.21970143965489,14.962236435673308 L38.16078084075997,14.989359490709216 L38.10083791262529,15.014247283540431 L38.03994638320181,15.03686920295014 L37.9781811471908,15.057197424675884 L37.91561817392565,15.075206945632543 L37.852334413931956,15.090875614665352 L37.788407704280715,15.104184159795148 L37.72391667285117,15.115116211922299 L37.65894064162092,15.123658324960196 L37.593559529102365,15.129799992373533 L37.527853752045345,15.133533660100998 L37.461904126527095,15.134854735846561 L37.39579176855091,15.133761594727842 L37.329597994276,15.130255581274666 " />
			<path d="M29.07083737607334,-19.236864786661563 L29.163463244956098,-19.227914836047198 L29.25586597000765,-19.214268903751396 L29.347822944969828,-19.195959864020292 L29.43911263743546,-19.173031824934284 L29.529515122539365,-19.14554002214779 L29.618812612776612,-19.11355068582172 L29.70678998267168,-19.07714088106922 L29.793235287034577,-19.036398322299057 L29.87794027155539,-18.991421161903936 L29.96070087450712,-18.942317753802783 L30.041317718348285,-18.889206392406667 L30.119596590040874,-18.832215027637194 L30.195348908926555,-18.771480956683952 L30.268392181034017,-18.707150493243535 L30.338550438722915,-18.639378615037064 L30.40565466460534,-18.568328590455245 L30.469543198723503,-18.49417158523055 L30.530062128002747,-18.41708625008395 L30.587065657041595,-18.33725829033969 L30.64041645934568,-18.254880018544895 L30.68998600815927,-18.170149891171807 L30.735654886097496,-18.083272030518746 L30.77731307283328,-17.994455732961633 L30.814860210145955,-17.903914964740668 L30.848205843692988,-17.81186784649693 L30.877269640922435,-17.718536127800647 L30.90198158460108,-17.624144652937048 L30.922282141492094,-17.528920819236795 L30.938122405775804,-17.433094029255898 L30.94946421686811,-17.336895138124856 L30.95628025135266,-17.24055589739843 L30.958554088805375,-17.14430839674586 " />
			<path d="M68.71288834344607,-22.231906991010902 L68.71288834344607,17.363464208736808 " />
			<path d="M30.95855408880537,-17.14430839674585 L30.95855408880537,18.103796528845596 " />
			<path d="M30.958554088805375,18.103796528845596 L30.954797014822837,18.227015407940517 L30.9435407480905,18.349209107839908 L30.924830094724232,18.4698912305926 L30.898739533387584,18.58858139515361 L30.86537291882584,18.704807149564182 L30.824863068467177,18.818105851569726 L30.777371233736446,18.928026510189778 L30.72308645818604,19.034131580909463 L30.662224824998884,19.135998707346676 L30.59502859685882,19.233222402462147 L30.52176525161225,19.325415662620276 L30.442726417559594,19.412211508075885 L30.358226712614673,19.493264443754885 L30.268602491952866,19.568251834514214 L30.174210509132983,19.636875189406638 L30.075426496022448,19.69886134983847 " />
			<path d="M-25.672947293155673,10.647047284038619 L-25.672947293155673,-21.17415855156477 " />
			<path d="M-23.78523058042364,-22.99805826449255 L-23.851424354698555,-23.00156427794573 L-23.91753671267474,-23.002657419064448 L-23.98348633819299,-23.001336343318883 L-24.04919211525001,-22.997602675591416 L-24.11457322776857,-22.99146100817808 L-24.17954925899882,-22.982918895140184 L-24.244040290428362,-22.97198684301303 L-24.307967000079604,-22.95867829788324 L-24.371250760073302,-22.943009628850426 L-24.433813733338447,-22.92500010789377 L-24.495578969349456,-22.904671886168025 L-24.55647049877293,-22.882049966758316 L-24.616413426907613,-22.8571621739271 L-24.675334025802535,-22.830039118891193 L-24.73315982494013,-22.800714162170905 L-24.789819700372735,-22.76922337255765 " />
			<path d="M-24.789819700372743,-22.769223372557647 L-24.888603713483285,-22.70723721212581 L-24.982995696303167,-22.638613857233388 L-25.072619916964975,-22.563626466474062 L-25.157119621909896,-22.482573530795058 L-25.236158455962553,-22.39577768533945 L-25.309421801209123,-22.30358442518132 L-25.376618029349185,-22.206360730065853 L-25.43747966253634,-22.104493603628637 L-25.491764438086747,-21.99838853290895 L-25.53925627281748,-21.8884678742889 L-25.579766123176142,-21.775169172283356 L-25.613132737737885,-21.658943417872784 L-25.639223299074533,-21.540253253311775 L-25.6579339524408,-21.41957113055908 L-25.66919021917314,-21.297377430659694 L-25.672947293155676,-21.174158551564787 " />
			<path d="M-15.526469962220986,-27.79549892499126 L-15.592663736495902,-27.79900493844444 L-15.658776094472085,-27.80009807956316 L-15.724725719990337,-27.798777003817595 L-15.790431497047354,-27.795043336090128 L-15.855812609565918,-27.788901668676793 L-15.920788640796163,-27.780359555638896 L-15.985279672225708,-27.769427503511743 L-16.04920638187695,-27.756118958381947 L-16.112490141870648,-27.740450289349138 L-16.175053115135793,-27.72244076839248 L-16.236818351146802,-27.702112546666736 L-16.297709880570277,-27.679490627257028 L-16.35765280870496,-27.654602834425813 L-16.41657340759988,-27.627479779389905 L-16.474399206737477,-27.59815482266962 L-16.53105908217008,-27.566664033056362 " />
			<path d="M-16.53105908217009,-27.56666403305636 L-16.629843095280627,-27.504677872624523 L-16.724235078100513,-27.4360545177321 L-16.81385929876232,-27.36106712697277 L-16.89835900370724,-27.28001419129377 L-16.9773978377599,-27.19321834583816 L-17.05066118300647,-27.101025085680032 L-17.11785741114653,-27.00380139056456 L-17.178719044333686,-26.90193426412735 L-17.233003819884093,-26.795829193407663 L-17.280495654614825,-26.68590853478761 L-17.32100550497349,-26.572609832782067 L-17.35437211953523,-26.456384078371496 L-17.38046268087188,-26.337693913810487 L-17.399173334238146,-26.217011791057793 L-17.410429600970485,-26.094818091158405 L-17.414186674953022,-25.9715992120635 " />
			<path d="M-15.526469962220986,11.369062103443673 L-15.619095831103746,11.360112152829311 L-15.711498556155298,11.346466220533506 L-15.803455531117473,11.328157180802403 L-15.894745223583106,11.305229141716396 L-15.985147708687014,11.277737338929903 L-16.07444519892426,11.245748002603833 L-16.162422568819323,11.20933819785133 L-16.248867873182224,11.168595639081168 L-16.333572857703036,11.123618478686048 L-16.416333460654766,11.074515070584896 L-16.496950304495932,11.02140370918878 L-16.57522917618852,10.964412344419307 L-16.650981495074202,10.903678273466062 L-16.724024767181664,10.839347810025647 L-16.794183024870563,10.771575931819175 L-16.861287250752987,10.700525907237358 L-16.92517578487115,10.626368902012663 L-16.98569471415039,10.549283566866063 L-17.042698243189243,10.469455607121802 L-17.096049045493327,10.387077335327005 L-17.145618594306917,10.302347207953915 L-17.191287472245143,10.215469347300857 L-17.232945658980928,10.126653049743744 L-17.270492796293603,10.03611228152278 L-17.303838429840635,9.944065163279042 L-17.332902227070083,9.850733444582758 L-17.35761417074873,9.75634196971916 L-17.37791472763974,9.661118136018908 L-17.39375499192345,9.565291346038011 L-17.405096803015756,9.469092454906969 L-17.411912837500306,9.372753214180543 L-17.414186674953022,9.276505713527978 " />
			<path d="M-17.41418667495302,9.276505713527962 L-17.41418667495302,-25.97159921206348 " />
			<path d="M-63.23850987652317,-63.246840882200196 L63.23850987652317,-54.24684220310461 " />
			<path d="M-63.23850987652317,-63.24684088220019 L-63.33780053793554,-63.25209990237995 L-63.436969074899814,-63.253739614058034 L-63.53589351317719,-63.251758000439686 L-63.63445217876272,-63.24615749884849 L-63.73252384754056,-63.236944997728486 L-63.82998789438594,-63.224131828171636 L-63.92672444153025,-63.20773374998091 L-64.02261450600712,-63.18777093228622 L-64.11754014599767,-63.164267928737004 L-64.21138460589538,-63.13725364730202 L-64.3040324599119,-63.1067613147134 L-64.39536975404711,-63.07282843559884 L-64.48528414624913,-63.03549674635202 L-64.57366504459151,-62.99481216379815 L-64.6604037432979,-62.95082472871773 L-64.74539355644681,-62.90358854429784 " />
			<path d="M63.23850987652317,-54.246842203104606 L63.377448679847305,-54.233417277183065 L63.51605276742464,-54.212948378739355 L63.6539882298679,-54.1854848191427 L63.79092276856635,-54.15109276051369 L63.92652649622221,-54.109855056333956 L64.06047273157807,-54.06187105184485 L64.19243878642068,-54.0072563447161 L64.32210674296503,-53.94614250656085 L64.44916421974624,-53.878676765968166 L64.57330512417384,-53.80502165381644 L64.69423038993558,-53.72535461172227 L64.81164869747447,-53.63986756456806 L64.92527717580299,-53.54876645813819 L65.03484208396418,-53.45227076297757 L65.14007947049753,-53.35061294566786 L65.24073580932117,-53.244037908795136 L65.33656861049842,-53.13280240095809 L65.42734700441727,-53.01717439823819 L65.51285229797556,-52.8974324586218 L65.59287850143168,-52.77386505092961 L65.66723282465206,-52.64676985986998 L65.7357361415594,-52.516453068890385 L65.79822342166308,-52.38322862255472 L65.8545441276321,-52.24741747022327 L65.90456257795265,-52.109346792857664 L65.9481582737968,-51.969349214813235 L65.98522618931477,-51.82776200251784 L66.0156770246513,-51.68492625196746 L66.03943742107687,-51.54118606699611 L66.05645013771532,-51.39688773029955 L66.06667418944215,-51.252378869209906 L66.07008494562122,-51.108007618231056 " />
			<path d="M66.07008494562122,-51.10800761823105 L66.07008494562122,60.510991312808514 " />
			<path d="M66.07008494562122,60.510991312808514 L66.0686756921904,60.60355182008452 L66.0644493346474,60.6958196314509 L66.05741007984444,60.78770290492816 L66.0475649345489,60.879110181299986 L66.03492369846907,60.96995047515035 L66.01949895449951,61.060133365429024 L66.00130605619636,61.14956908545534 L65.98036311249453,61.23816861227054 L65.95669096968247,61.32584375524991 L65.93031319065192,61.412507243886395 L65.90125603144394,61.49807281465829 L65.86954841511393,61.582455296894715 L65.8352219029421,61.66557069755313 L65.79831066301783,61.74733628482479 L65.75885143622932,61.82767067048472 L65.71688349969222,61.90649389090432 L65.6724486276538,61.98372748664592 L65.62559104991149,62.05929458056014 L65.57635740778723,62.133119954308256 L65.52479670770138,62.205130123233346 L65.47096027239253,62.275253409505844 L65.41490168983154,62.34342001347054 L65.35667675988093,62.40956208312411 L65.29634343875254,62.473613781653945 L65.23396178131885,62.53551135297118 L65.16959388133517,62.595193185172455 L65.10330380963251,62.65259987186752 L65.03515755034246,62.70767427131145 L64.96522293521755,62.76036156328264 L64.89356957611263,62.81060930365008 L64.82026879569416,62.85836747657538 L64.74539355644683,62.903588544297826 " />
			<path d="M-24.789819700372743,-22.769223372557644 L-16.53105908217009,-27.566664033056355 " />
			<path d="M37.87360819508043,15.168966891030497 L38.334187114225095,14.901420689339758 " />

       </g>

       <!-- solid lines -->
       <g  stroke="rgb(0,0,0)" fill="none">
			<path d="M-54.319048408864305,-33.14080730891892 L-58.28325350560158,-30.83803579187954 " />
			<path d="M-54.319048408864305,-33.14080730891892 L-52.24256002485907,-32.993046136575565 " />
			<path d="M-52.24256002485909,-30.83899528001165 L147.85541152473667,-16.600191399651465 " />
			<path d="M147.85541152473664,-16.600191399651465 L151.1589157720177,-18.51916766385095 " />
			<path d="M151.1589157720177,-18.51916766385095 L153.23540415602295,-18.37140649150759 " />
			<path d="M-54.319048408864305,6.023753719516005 L-58.28325350560158,8.326525236555387 " />
			<path d="M-54.319048408864305,6.023753719516005 L-54.319048408864305,-33.14080730891892 " />
			<path d="M-58.28325350560158,8.326525236555387 L-58.28325350560158,-30.838035791879545 " />
			<path d="M-52.24256002485909,-32.993046136575565 L-52.24256002485909,6.171514891859367 " />
			<path d="M-52.24256002485909,6.171514891859367 L-54.319048408864326,6.023753719516007 " />
			<path d="M-55.54606427214016,8.090491156058851 L-52.242560024859095,6.171514891859367 " />
			<path d="M147.85541152473664,22.564369628783467 L-55.54606427214017,8.090491156058848 " />
			<path d="M147.85541152473664,22.564369628783467 L147.85541152473664,-16.600191399651465 " />
			<path d="M153.23540415602292,-18.37140649150759 L153.23540415602292,20.793154536927343 " />
			<path d="M149.27119905928564,23.095926053966725 L153.23540415602292,20.793154536927343 " />
			<path d="M149.27119905928564,23.095926053966725 L37.32959799427597,15.130255581274664 " />
			<path d="M-60.59570647869832,-64.78202189355977 L65.88131327434802,-55.782023214464196 " />
			<path d="M-60.59570647869832,-64.78202189355979 L-60.694997140110694,-64.78728091373955 L-60.794165677074965,-64.78892062541763 L-60.893090115352344,-64.78693901179928 L-60.99164878093787,-64.78133851020809 L-61.08972044971571,-64.77212600908808 L-61.18718449656109,-64.75931283953123 L-61.2839210437054,-64.7429147613405 L-61.37981110818226,-64.72295194364581 L-61.47473674817281,-64.6994489400966 L-61.568581208070526,-64.67243465866162 L-61.66122906208704,-64.64194232607299 L-61.75256635622225,-64.60800944695843 L-61.84248074842428,-64.57067775771161 L-61.93086164676666,-64.52999317515774 L-62.017600345473056,-64.48600574007732 L-62.102590158621965,-64.43876955565743 " />
			<path d="M-62.10259015862197,-64.43876955565743 L-62.17746539786931,-64.39354848793498 L-62.25076617828778,-64.34579031500967 L-62.32241953739271,-64.29554257464223 L-62.392354152517605,-64.24285528267103 L-62.46050041180766,-64.1877808832271 L-62.526790483510325,-64.13037419653205 L-62.59115838349401,-64.07069236433077 L-62.6535400409277,-64.00879479301354 L-62.71387336205608,-63.9447430944837 L-62.77209829200669,-63.87860102483013 L-62.82815687456769,-63.810434420865434 L-62.88199330987654,-63.740311134592936 L-62.93355400996238,-63.66830096566785 L-62.982787652086635,-63.59447559191973 L-63.029645229828944,-63.51890849800551 L-63.07408010186737,-63.44167490226391 L-63.11604803840447,-63.36285168184431 L-63.15550726519298,-63.28251729618438 L-63.19241850511724,-63.20075170891272 L-63.226745017289076,-63.117636308254305 L-63.25845263361909,-63.033253826017884 L-63.28750979282707,-62.947688255245986 L-63.31388757185761,-62.8610247666095 L-63.33755971466969,-62.77334962363013 L-63.358502658371506,-62.68475009681493 L-63.37669555667466,-62.595314376788615 L-63.392120300644216,-62.50513148650994 L-63.40476153672406,-62.414291192659576 L-63.41460668201959,-62.32288391628776 L-63.421645936822564,-62.23100064281049 L-63.42587229436555,-62.138732831444116 L-63.42728154779637,-62.04617232416813 " />
			<path d="M65.88131327434802,-55.782023214464196 L66.02025207767215,-55.768598288542655 L66.15885616524949,-55.748129390098946 L66.29679162769274,-55.72066583050229 L66.4337261663912,-55.68627377187328 L66.56932989404706,-55.64503606769354 L66.70327612940292,-55.59705206320444 L66.83524218424553,-55.54243735607568 L66.96491014078988,-55.48132351792044 L67.09196761757109,-55.413857777327756 L67.21610852199869,-55.34020266517603 L67.33703378776043,-55.26053562308186 L67.45445209529932,-55.17504857592765 L67.56808057362784,-55.08394746949778 L67.67764548178903,-54.98745177433716 L67.78288286832237,-54.88579395702745 L67.88353920714601,-54.779218920154726 L67.97937200832327,-54.66798341231768 L68.07015040224212,-54.55235540959778 L68.1556556958004,-54.43261346998139 L68.23568189925653,-54.3090460622892 L68.31003622247691,-54.18195087122956 L68.37853953938425,-54.051634080249976 L68.44102681948793,-53.91840963391431 L68.49734752545695,-53.78259848158286 L68.5473659757775,-53.644527804217255 L68.59096167162166,-53.504530226172825 L68.62802958713962,-53.36294301387743 L68.65848042247615,-53.22010726332705 L68.68224081890172,-53.0763670783557 L68.69925353554017,-52.93206874165914 L68.709477587267,-52.787559880569496 L68.71288834344607,-52.64318862959065 " />
			<path d="M-63.42728154779637,49.57282660687146 L-63.42728154779637,-62.046172324168104 " />
			<path d="M68.71288834344607,-52.64318862959064 L68.71288834344607,-22.231906991010902 " />
			<path d="M68.71288834344607,17.363464208736808 L68.71288834344607,58.975810301448924 " />
			<path d="M-60.59570647869832,52.711661191745016 L-60.734645282022456,52.698236265823475 L-60.87324936959979,52.677767367379765 L-61.01118483204305,52.65030380778311 L-61.1481193707415,52.6159117491541 L-61.28372309839736,52.57467404497436 L-61.41766933375323,52.526690040485256 L-61.549635388595824,52.47207533335651 L-61.67930334514018,52.410961495201256 L-61.806360821921395,52.34349575460858 L-61.930501726348986,52.26984064245685 L-62.051426992110734,52.19017360036268 L-62.16884529964962,52.10468655320847 L-62.28247377797814,52.0135854467786 L-62.39203868613934,51.91708975161798 L-62.49727607267268,51.81543193430827 L-62.597932411496316,51.708856897435545 L-62.69376521267357,51.5976213895985 L-62.78454360659243,51.4819933868786 L-62.8700489001507,51.36225144726221 L-62.95007510360683,51.23868403957002 L-63.02442942682722,51.11158884851038 L-63.09293274373456,50.981272057530795 L-63.15542002383823,50.84804761119512 L-63.21174072980724,50.71223645886368 L-63.26175918012779,50.574165781498074 L-63.30535487597196,50.434168203453645 L-63.34242279148993,50.292580991158246 L-63.37287362682645,50.14974524060787 L-63.39663402325201,50.00600505563652 L-63.41364673989047,49.861706718939956 L-63.4238707916173,49.71719785785032 L-63.42728154779637,49.57282660687147 " />
			<path d="M68.71288834344607,58.975810301448924 L68.71147909001525,59.06837080872493 L68.70725273247226,59.16063862009131 L68.7002134776693,59.25252189356857 L68.69036833237375,59.343929169940395 L68.67772709629392,59.43476946379076 L68.66230235232436,59.524952354069434 L68.6441094540212,59.61438807409575 L68.62316651031938,59.70298760091095 L68.59949436750732,59.79066274389032 L68.57311658847676,59.877326232526805 L68.54405942926878,59.9628918032987 L68.51235181293877,60.047274285535124 L68.47802530076694,60.13038968619354 L68.44111406084268,60.2121552734652 L68.40165483405417,60.29248965912513 L68.35968689751707,60.37131287954473 L68.31525202547864,60.44854647528633 L68.26839444773634,60.52411356920055 L68.21916080561208,60.597938942948666 L68.16760010552623,60.669949111873755 L68.11376367021738,60.74007239814625 L68.05770508765639,60.80823900211095 L67.99948015770578,60.87438107176452 L67.9391468365774,60.938432770294355 L67.8767651791437,61.00033034161159 L67.81239727916002,61.060012173812865 L67.74610720745736,61.117418860507925 L67.67796094816731,61.17249325995186 L67.6080263330424,61.22518055192305 L67.53637297393747,61.27542829229049 L67.46307219351901,61.32318646521579 L67.38819695427168,61.368407532938235 " />
			<path d="M67.38819695427168,61.36840753293824 L67.30320714112275,61.41564371735814 L67.21646844241636,61.45963115243856 L67.12808754407398,61.50031573499243 L67.03817315187196,61.537647424239246 L66.94683585773674,61.57158030335381 L66.85418800372022,61.60207263594243 L66.76034354382251,61.629086917377414 L66.66541790383197,61.65258992092663 L66.5695278393551,61.67255273862132 L66.47279129221079,61.688950816812046 L66.37532724536541,61.701763986368896 L66.27725557658756,61.7109764874889 L66.17869691100205,61.716576989080096 L66.07977247272467,61.718558602698444 L65.98060393576039,61.71691889102036 L65.88131327434803,61.7116598708406 " />
			<path d="M65.88131327434802,61.711659870840606 L-60.59570647869832,52.71166119174502 " />
			<path d="M30.07542649602244,19.698861349838474 L30.01876662058983,19.730352139451732 L29.960940821452233,19.75967709617202 L29.90202022255731,19.786800151207927 L29.84207729442263,19.811687944039143 L29.781185764999154,19.83430986344885 L29.719420528988145,19.854638085174596 L29.656857555723,19.872647606131252 L29.593573795729302,19.888316275164065 L29.52964708607806,19.901624820293858 L29.465156054648517,19.91255687242101 L29.40018002341827,19.921098985458908 L29.334798910899707,19.927240652872243 L29.26909313384269,19.93097432059971 L29.203143508324438,19.932295396345275 L29.137031150348257,19.93120225522655 L29.070837376073346,19.92769624177338 " />
			<path d="M29.070837376073335,19.927696241773372 L-23.785230580423644,16.166502763942383 " />
			<path d="M-23.78523058042364,16.166502763942383 L-23.8778564493064,16.15755281332802 L-23.970259174357953,16.14390688103222 L-24.062216149320125,16.125597841301115 L-24.15350584178576,16.102669802215107 L-24.243908326889667,16.075177999428615 L-24.333205817126913,16.043188663102544 L-24.421183187021978,16.006778858350042 L-24.507628491384878,15.96603629957988 L-24.59233347590569,15.92105913918476 L-24.67509407885742,15.871955731083608 L-24.755710922698587,15.818844369687492 L-24.833989794391176,15.761853004918018 L-24.909742113276856,15.701118933964773 L-24.982785385384318,15.636788470524358 L-25.052943643073217,15.569016592317887 L-25.12004786895564,15.49796656773607 L-25.183936403073805,15.423809562511375 L-25.244455332353045,15.346724227364774 L-25.301458861391897,15.266896267620513 L-25.35480966369598,15.184517995825717 L-25.40437921250957,15.099787868452626 L-25.450048090447797,15.012910007799569 L-25.49170627718358,14.924093710242456 L-25.529253414496257,14.833552942021491 L-25.56259904804329,14.741505823777754 L-25.591662845272737,14.64817410508147 L-25.616374788951383,14.55378263021787 L-25.636675345842395,14.45855879651762 L-25.652515610126102,14.362732006536723 L-25.66385742121841,14.26653311540568 L-25.67067345570296,14.170193874679255 L-25.672947293155676,14.07394637402669 " />
			<path d="M-25.672947293155673,14.073946374026674 L-25.672947293155673,10.647047284038619 " />
			<path d="M-15.526469962221029,11.369062103443673 L-58.28325350560161,8.326525236555389 " />
			<path d="M153.23540415602292,20.793154536927343 L151.15891577201768,20.64539336458398 " />
			<path d="M147.85541152473664,22.564369628783467 L151.1589157720177,20.64539336458398 " />
			<path d="M-23.78523058042364,16.166502763942383 L-15.526469962220986,11.369062103443671 " />
			<path d="M29.07083737607334,19.927696241773376 L37.32959799427599,15.130255581274664 " />
			<path d="M151.1589157720177,20.64539336458398 L151.1589157720177,-18.51916766385095 " />
			<path d="M-64.74539355644683,-62.90358854429783 L-64.82026879569416,-62.85836747657538 L-64.89356957611263,-62.81060930365008 L-64.96522293521755,-62.76036156328264 L-65.03515755034246,-62.70767427131145 L-65.10330380963251,-62.65259987186752 L-65.16959388133517,-62.595193185172455 L-65.23396178131885,-62.535511352971184 L-65.29634343875254,-62.473613781653945 L-65.35667675988093,-62.40956208312411 L-65.41490168983154,-62.34342001347054 L-65.47096027239253,-62.275253409505844 L-65.52479670770138,-62.205130123233346 L-65.57635740778723,-62.133119954308256 L-65.62559104991149,-62.05929458056014 L-65.6724486276538,-61.98372748664592 L-65.71688349969222,-61.90649389090432 L-65.75885143622932,-61.82767067048472 L-65.79831066301783,-61.74733628482479 L-65.8352219029421,-61.66557069755313 L-65.86954841511393,-61.582455296894715 L-65.90125603144394,-61.49807281465829 L-65.93031319065192,-61.412507243886395 L-65.95669096968247,-61.32584375524991 L-65.98036311249453,-61.23816861227054 L-66.00130605619636,-61.14956908545534 L-66.01949895449951,-61.060133365429024 L-66.03492369846907,-60.96995047515035 L-66.0475649345489,-60.879110181299986 L-66.05741007984444,-60.78770290492817 L-66.0644493346474,-60.6958196314509 L-66.0686756921904,-60.603551820084526 L-66.07008494562122,-60.51099131280854 " />
			<path d="M-66.07008494562122,51.10800761823105 L-66.07008494562122,-60.510991312808514 " />
			<path d="M-63.23850987652317,54.246842203104606 L-63.377448679847305,54.233417277183065 L-63.51605276742464,54.212948378739355 L-63.6539882298679,54.1854848191427 L-63.79092276856635,54.15109276051369 L-63.92652649622221,54.109855056333956 L-64.06047273157807,54.06187105184485 L-64.19243878642068,54.0072563447161 L-64.32210674296502,53.94614250656085 L-64.44916421974624,53.878676765968166 L-64.57330512417384,53.80502165381644 L-64.69423038993558,53.72535461172227 L-64.81164869747447,53.63986756456806 L-64.92527717580299,53.54876645813819 L-65.03484208396418,53.45227076297757 L-65.14007947049753,53.35061294566786 L-65.24073580932117,53.244037908795136 L-65.33656861049842,53.13280240095809 L-65.42734700441727,53.01717439823819 L-65.51285229797556,52.8974324586218 L-65.59287850143168,52.77386505092961 L-65.66723282465206,52.64676985986997 L-65.7357361415594,52.516453068890385 L-65.79822342166308,52.38322862255471 L-65.8545441276321,52.24741747022327 L-65.90456257795265,52.109346792857664 L-65.9481582737968,51.969349214813235 L-65.98522618931477,51.82776200251784 L-66.0156770246513,51.68492625196746 L-66.03943742107687,51.54118606699611 L-66.05645013771532,51.396887730299554 L-66.06667418944215,51.25237886920991 L-66.07008494562122,51.10800761823106 " />
			<path d="M64.74539355644683,62.90358854429783 L64.6604037432979,62.95082472871773 L64.57366504459151,62.99481216379815 L64.48528414624913,63.03549674635202 L64.39536975404711,63.07282843559884 L64.3040324599119,63.1067613147134 L64.21138460589538,63.13725364730202 L64.11754014599767,63.164267928737004 L64.02261450600712,63.18777093228622 L63.926724441530254,63.20773374998091 L63.82998789438594,63.224131828171636 L63.73252384754056,63.236944997728486 L63.63445217876272,63.24615749884849 L63.53589351317719,63.251758000439686 L63.43696907489982,63.253739614058034 L63.33780053793554,63.25209990237995 L63.23850987652318,63.24684088220019 " />
			<path d="M63.23850987652317,63.246840882200196 L-63.23850987652317,54.24684220310461 " />
			<path d="M-66.07008494562122,-60.510991312808514 L-63.42728154779637,-62.046172324168104 " />
			<path d="M-66.07008494562122,51.10800761823104 L-63.42728154779637,49.57282660687145 " />
			<path d="M-63.23850987652317,54.24684220310461 L-60.59570647869832,52.71166119174502 " />
			<path d="M63.23850987652317,63.246840882200196 L65.88131327434802,61.711659870840606 " />
			<path d="M-25.672947293155673,14.073946374026676 L-20.417372354299438,11.02102959007295 " />
			<path d="M30.07542649602244,19.69886134983847 L37.87360819508043,15.168966891030497 " />
			<path d="M-64.74539355644683,-62.90358854429784 L-62.10259015862198,-64.43876955565743 " />
			<path d="M64.74539355644683,62.90358854429784 L67.38819695427168,61.36840753293825 " />

       </g>
    </g>
    <g transform="translate(20,570.0)" stroke="rgb(0,0,255)">
        <line x1="30" y1="-30" x2="75" y2="-33" stroke-width="3" stroke="#000000" />
         <text x="80" y="-30" style="stroke:#000000">X </text>

        <line x1="30" y1="-30" x2="30" y2="-75" stroke-width="3" stroke="#000000" />
         <text x="25" y="-85" style="stroke:#000000">Y </text>

        <line x1="30" y1="-30" x2="58" y2="-15" stroke-width="3" stroke="#000000" />
         <text x="65" y="-5" style="stroke:#000000">Z </text>
        <!--
            <line x1="0" y1="0" x2="2.735909632074511" y2="0" stroke-width="3" />
            <text x="0" y="20" style="stroke:#000000">1  mm </text>
        -->
    </g>
</svg>
