<?xml version="1.0" encoding="UTF-8" standalone="no"?>
<svg
   xmlns:svg="http://www.w3.org/2000/svg"
   xmlns="http://www.w3.org/2000/svg"
   width="800.0"
   height="600.0"

>
    <g transform="scale(40.04337656771733, -40.04337656771733)   translate(12.073521475181973,-2.941958727055241)" stroke-width="0.024972919012184215"  fill="none">
       <!-- hidden lines -->
       <g  stroke="rgb(160,160,160)" fill="none" stroke-dasharray="0.024972919012184215,0.024972919012184215" >
			<path d="M-6.795780165835326,-2.4418100700000167 L-6.135079316379113,-2.3947951515271297 " />
			<path d="M-5.309203254558848,-2.874539217577001 L-6.135079316379113,-2.3947951515271297 " />
			<path d="M-6.795780165835326,-2.441810070000017 L-6.835374396059281,-2.4417417316648473 L-6.87419062878372,-2.4359030750086204 L-6.911466153587719,-2.4244088253398823 L-6.94646853382769,-2.4074848362097825 " />
			<path d="M7.0789376727451305,2.16822511306085 L7.076685671637899,2.205036999909997 L7.069965489432462,2.2409428430070526 L7.058884019694402,2.2753715114694697 L7.043617528152231,2.3077753708704303 L7.024408848953148,2.337638994103333 L7.001563522058264,2.364487359945393 L6.975444933217254,2.3878934089111428 L6.946468533827693,2.407484836209781 " />
			<path d="M7.0789376727451305,-1.16076257435612 L7.0789376727451305,2.1682251130608496 " />
			<path d="M6.795780165835325,-1.4746460328434767 L6.823534454925472,-1.4712566504069517 L6.851021455039643,-1.4650710885843854 L6.877976451340816,-1.4561489177175009 L6.904139852479511,-1.4445760631891011 L6.929259690600392,-1.4304639779146604 L6.953094047930455,-1.4139485689898221 L6.975413386579427,-1.395188888830773 L6.996002759115125,-1.3743656034125298 L7.014663878624736,-1.3516792523568353 L7.031217028326177,-1.3273483176259768 L7.045502792338949,-1.3016071194220549 L7.057383590946218,-1.2747035595553429 L7.06674500556269,-1.2468967340143395 L7.073496880648139,-1.218454437729762 L7.0775741919545405,-1.1896505855629709 L7.0789376727451305,-1.1607625743561214 " />
			<path d="M6.135079316379114,-1.521660951316364 L6.7957801658353265,-1.4746460328434767 " />
			<path d="M6.135079316379113,0.09387719110657722 L6.135079316379113,0.6323899052475572 " />
			<path d="M6.135079316379113,0.6323899052475574 L-6.135079316379115,-0.24074429496320815 " />
			<path d="M-6.135079316379113,-0.24074429496320818 L-6.135079316379113,-2.3947951515271297 " />
			<path d="M-6.135079316379113,-0.24074429496320818 L-5.309203254558848,-0.7204883610130793 " />
			<path d="M6.135079316379113,0.6323899052475574 L6.960955378199379,0.15264583919768626 " />

       </g>

       <!-- solid lines -->
       <g  stroke="rgb(0,0,0)" fill="none">
			<path d="M-5.96990410401506,-2.921554136049888 L-5.309203254558848,-2.874539217577001 " />
			<path d="M-6.946468533827691,-2.4074848362097816 L-6.975444933217254,-2.3878934089111428 L-7.001563522058264,-2.364487359945393 L-7.024408848953148,-2.337638994103333 L-7.043617528152231,-2.3077753708704303 L-7.058884019694402,-2.2753715114694697 L-7.069965489432462,-2.2409428430070526 L-7.076685671637899,-2.2050369999099972 L-7.0789376727451305,-2.1682251130608527 " />
			<path d="M-7.0789376727451305,1.16076257435612 L-7.0789376727451305,-2.1682251130608496 " />
			<path d="M-6.795780165835325,1.4746460328434767 L-6.823534454925472,1.4712566504069517 L-6.851021455039643,1.4650710885843854 L-6.877976451340816,1.4561489177175009 L-6.904139852479511,1.4445760631891011 L-6.929259690600392,1.4304639779146604 L-6.953094047930455,1.4139485689898221 L-6.975413386579427,1.395188888830773 L-6.996002759115125,1.3743656034125298 L-7.014663878624736,1.3516792523568355 L-7.031217028326177,1.327348317625977 L-7.045502792338949,1.3016071194220549 L-7.057383590946218,1.274703559555343 L-7.06674500556269,1.2468967340143398 L-7.073496880648139,1.218454437729762 L-7.0775741919545405,1.189650585562971 L-7.0789376727451305,1.1607625743561227 " />
			<path d="M6.795780165835326,2.4418100700000167 L-6.7957801658353265,1.4746460328434767 " />
			<path d="M6.946468533827691,2.4074848362097816 L6.911466153587719,2.424408825339882 L6.87419062878372,2.4359030750086204 L6.835374396059281,2.4417417316648473 L6.7957801658353265,2.4418100700000176 " />
			<path d="M6.135079316379113,-1.5216609513163637 L6.135079316379113,0.09387719110657722 " />
			<path d="M-5.309203254558848,-0.7204883610130793 L-5.309203254558848,-2.874539217577001 " />
			<path d="M-5.96990410401506,-2.9215541360498882 L-6.009498334239016,-2.9214857977147184 L-6.048314566963454,-2.9156471410584914 L-6.085590091767454,-2.904152891389753 L-6.1205924720074245,-2.8872289022596536 " />
			<path d="M-6.120592472007425,-2.887228902259653 L-6.149568871396989,-2.867637474961014 L-6.175687460237999,-2.844231425995264 L-6.198532787132883,-2.817383060153204 L-6.217741466331965,-2.7875194369203014 L-6.233007957874136,-2.7551155775193408 L-6.244089427612197,-2.7206869090569237 L-6.250809609817634,-2.6847810659598683 L-6.253061610924865,-2.647969179110724 " />
			<path d="M-6.253061610924865,0.681018508306249 L-6.253061610924865,-2.6479691791107207 " />
			<path d="M-5.969904104015059,0.9949019667936057 L-5.9976583931052065,0.9915125843570807 L-6.025145393219377,0.9853270225345143 L-6.05210038952055,0.9764048516676299 L-6.078263790659245,0.9648319971392301 L-6.103383628780127,0.9507199118647893 L-6.12721798611019,0.934204502939951 L-6.149537324759161,0.9154448227809021 L-6.17012669729486,0.8946215373626588 L-6.188787816804471,0.8719351863069644 L-6.205340966505911,0.847604251576106 L-6.219626730518684,0.8218630533721838 L-6.2315075291259525,0.7949594935054721 L-6.2408689437424245,0.7671526679644687 L-6.2476208188278735,0.7387103716798908 L-6.251698130134275,0.7099065195130999 L-6.253061610924865,0.6810185083062515 " />
			<path d="M7.621656227655591,1.9620660039501459 L-5.969904104015061,0.9949019667936055 " />
			<path d="M7.904813734565396,1.6884810470109788 L7.902561733458165,1.7252929338601257 L7.895841551252728,1.7611987769571815 L7.884760081514667,1.7956274454195986 L7.869493589972496,1.8280313048205592 L7.850284910773413,1.8578949280534618 L7.82743958387853,1.884743293895522 L7.8013209950375195,1.9081493428612717 L7.772344595647958,1.92774077015991 " />
			<path d="M7.772344595647956,1.9277407701599107 L7.737342215407985,1.944664759290011 L7.700066690603985,1.9561590089587493 L7.661250457879547,1.9619976656149762 L7.621656227655592,1.9620660039501463 " />
			<path d="M7.904813734565396,-1.6405066404059911 L7.904813734565396,1.6884810470109786 " />
			<path d="M7.62165622765559,-1.9543900988933478 L7.649410516745737,-1.9510007164568228 L7.676897516859908,-1.9448151546342565 L7.703852513161081,-1.935892983767372 L7.730015914299776,-1.9243201292389722 L7.7551357524206574,-1.9102080439645315 L7.778970109750721,-1.8936926350396932 L7.801289448399692,-1.8749329548806442 L7.821878820935391,-1.8541096694624009 L7.840539940445002,-1.8314233184067064 L7.857093090146442,-1.807092383675848 L7.8713788541592145,-1.781351185471926 L7.883259652766483,-1.754447625605214 L7.892621067382955,-1.7266408000642106 L7.899372942468404,-1.698198503779633 L7.903450253774806,-1.669394651612842 L7.904813734565396,-1.6405066404059925 " />
			<path d="M6.96095537819938,-2.0014050173662348 L7.621656227655592,-1.9543900988933478 " />
			<path d="M6.960955378199379,-2.0014050173662348 L6.960955378199379,0.15264583919768615 " />
			<path d="M6.960955378199379,0.15264583919768632 L-5.30920325455885,-0.7204883610130792 " />
			<path d="M6.135079316379113,-1.521660951316364 L6.960955378199379,-2.001405017366235 " />
			<path d="M-7.0789376727451305,-2.1682251130608496 L-6.253061610924865,-2.6479691791107207 " />
			<path d="M-7.0789376727451305,1.16076257435612 L-6.253061610924865,0.6810185083062489 " />
			<path d="M-6.795780165835326,1.4746460328434765 L-5.96990410401506,0.9949019667936053 " />
			<path d="M6.795780165835326,2.4418100700000167 L7.621656227655591,1.9620660039501456 " />
			<path d="M-6.946468533827691,-2.4074848362097816 L-6.120592472007425,-2.8872289022596527 " />
			<path d="M6.946468533827691,2.4074848362097816 L7.772344595647956,1.9277407701599105 " />

       </g>
    </g>
    <g transform="translate(20,570.0)" stroke="rgb(0,0,255)">
        <line x1="30" y1="-30" x2="75" y2="-33" stroke-width="3" stroke="#000000" />
         <text x="80" y="-30" style="stroke:#000000">X </text>

        <line x1="30" y1="-30" x2="30" y2="-75" stroke-width="3" stroke="#000000" />
         <text x="25" y="-85" style="stroke:#000000">Y </text>

        <line x1="30" y1="-30" x2="58" y2="-15" stroke-width="3" stroke="#000000" />
         <text x="65" y="-5" style="stroke:#000000">Z </text>
        <!--
            <line x1="0" y1="0" x2="40.04337656771733" y2="0" stroke-width="3" />
            <text x="0" y="20" style="stroke:#000000">1  mm </text>
        -->
    </g>
</svg>
